<svg width="523" height="111" viewBox="0 0 523 111" fill="none" xmlns="http://www.w3.org/2000/svg">
<path d="M61.512 13.016C62.7067 12.8453 64.0293 12.76 65.48 12.76C67.6133 12.8453 69.32 13.1867 70.6 13.784C73.3307 15.2347 75.08 17.6667 75.848 21.08C76.0187 21.7627 76.104 22.9147 76.104 24.536C76.104 27.9493 75.6773 30.3387 74.824 31.704C74.2267 32.728 72.904 33.9653 70.856 35.416C67.8693 37.3787 65.1387 38.36 62.664 38.36C61.4693 38.36 60.7013 38.0613 60.36 37.464C60.0187 37.0373 60.0187 36.2267 60.36 35.032C60.7867 33.1547 60.8293 31.064 60.488 28.76C59.8907 26.2853 58.8667 24.7067 57.416 24.024C55.9653 23.3413 54.216 23.256 52.168 23.768C51.4 23.8533 50.5893 24.28 49.736 25.048C47.0907 27.352 44.488 31.2347 41.928 36.696C38.4293 43.9493 34.9307 54.616 31.432 68.696C29.2133 77.656 26.8667 84.2267 24.392 88.408L23.88 89.304H25.928C30.536 89.304 36.808 90.2427 44.744 92.12C52.3387 93.9973 58.056 95.0213 61.896 95.192H63.56L64.072 94.296C64.6693 93.528 65.1387 92.5467 65.48 91.352C65.9067 90.1573 66.7173 89.0053 67.912 87.896C70.984 84.824 74.312 83.2027 77.896 83.032C78.8347 83.032 79.5173 83.1173 79.944 83.288C80.7973 83.8 81.096 84.44 80.84 85.208C80.4987 87 79.56 89.1333 78.024 91.608C76.4027 94.0827 74.312 96.3013 71.752 98.264C67.912 101.421 63.944 103.555 59.848 104.664C57.288 105.432 54.344 105.816 51.016 105.816C46.4933 105.731 40.3067 104.707 32.456 102.744C25.4587 101.123 20.4667 100.227 17.48 100.056L15.56 99.928L14.28 101.08C12.8293 102.275 11.208 103.341 9.416 104.28C7.53867 105.219 5.78933 105.731 4.168 105.816C3.22933 105.816 2.58933 105.731 2.248 105.56C2.07733 105.475 1.82133 105.261 1.48 104.92C0.712 103.555 1.94933 101.336 5.192 98.264C6.728 96.8133 8.05067 95.1493 9.16 93.272C11.8053 89.0907 14.1093 82.8613 16.072 74.584C20.936 54.9573 26.184 41.0053 31.816 32.728C32.6693 31.3627 33.608 30.0827 34.632 28.888C36.168 26.84 38.5147 24.4507 41.672 21.72C47.9013 16.856 54.5147 13.9547 61.512 13.016ZM107.263 15.832C109.823 15.4907 111.786 15.4907 113.151 15.832C114.004 15.9173 114.986 16.4293 116.095 17.368C118.058 19.3307 118.399 22.9573 117.119 28.248C116.095 32.5147 113.236 39.9387 108.543 50.52C104.532 59.5653 101.759 66.392 100.223 71C98.0897 77.144 97.1937 82.1787 97.535 86.104C97.8763 89.3467 98.8577 91.9067 100.479 93.784C101.588 94.8933 103.21 95.576 105.343 95.832C107.903 95.9173 111.828 93.784 117.119 89.432C120.959 85.9333 124.799 81.9227 128.639 77.4C138.026 66.2213 145.919 54.0187 152.319 40.792C153.77 37.8907 155.007 34.9893 156.031 32.088C158.164 26.2 159.444 22.744 159.871 21.72C160.554 20.5253 161.748 19.3307 163.455 18.136C164.735 17.1973 166.271 16.472 168.063 15.96L170.367 15.576C171.22 15.576 171.818 15.6613 172.159 15.832C172.927 16.344 173.311 16.9413 173.311 17.624C173.311 19.2453 171.775 23.768 168.703 31.192C167.082 35.2027 164.948 41.6453 162.303 50.52C158.207 64.088 155.519 74.0293 154.239 80.344C152.788 87 152.191 91.9493 152.447 95.192C152.447 95.7893 152.66 96.1733 153.087 96.344C153.002 96.344 153.812 96.0027 155.519 95.32C157.567 94.2107 159.402 93.6133 161.023 93.528C161.876 93.528 162.516 93.6133 162.943 93.784C163.967 94.4667 164.18 95.576 163.583 97.112C162.9 98.3067 161.706 99.544 159.999 100.824C157.951 102.275 154.964 103.811 151.039 105.432C150.783 105.517 150.57 105.603 150.399 105.688C148.522 106.2 146.73 106.456 145.023 106.456H142.847L141.823 105.944C139.86 105.091 138.751 103.725 138.495 101.848C137.983 99.288 138.495 94.2533 140.031 86.744C140.031 86.4027 140.074 86.104 140.159 85.848C141.354 80.728 142.25 77.0587 142.847 74.84C143.188 73.816 143.359 73.2613 143.359 73.176L141.439 75.352C131.114 88.152 121.13 96.9413 111.487 101.72C106.623 104.195 101.93 105.56 97.407 105.816C94.7617 105.901 92.415 105.432 90.367 104.408C88.063 103.043 86.3563 101.208 85.247 98.904C84.5643 97.5387 84.0523 95.832 83.711 93.784C83.3697 92.248 83.327 89.944 83.583 86.872C83.6683 86.4453 83.711 86.1467 83.711 85.976C84.1377 83.2453 85.0337 79.704 86.399 75.352C88.3617 69.8907 91.3057 62.68 95.231 53.72C98.7297 45.784 101.076 39.9387 102.271 36.184C104.234 30.04 104.404 26.584 102.783 25.816C101.844 25.4747 100.65 25.5173 99.199 25.944C98.431 26.1147 97.407 26.584 96.127 27.352C93.567 29.0587 91.1777 29.912 88.959 29.912C87.679 29.912 86.8683 29.4853 86.527 28.632C86.1857 28.12 86.271 27.3947 86.783 26.456C87.3803 25.0907 89.0443 23.512 91.775 21.72C96.8097 18.3067 101.972 16.344 107.263 15.832ZM286.332 0.855995C286.503 0.770663 287.1 0.727997 288.124 0.727997C289.063 0.727997 289.66 0.813329 289.916 0.983994C290.94 1.66666 291.367 3.11733 291.196 5.336C290.855 8.92 289.575 11.864 287.356 14.168C286.929 14.68 286.46 15.0213 285.948 15.192C285.436 15.448 284.668 15.576 283.644 15.576C280.231 15.832 277.073 16.5573 274.172 17.752C271.527 18.9467 269.777 20.1413 268.924 21.336C268.327 22.4453 266.833 26.712 264.444 34.136C258.641 52.824 253.137 72.7067 247.932 93.784L246.268 100.568L246.012 101.336C245.585 103.213 243.964 104.92 241.148 106.456C240.977 106.541 240.807 106.627 240.636 106.712C239.185 107.309 237.777 107.608 236.412 107.608C235.303 107.608 234.407 107.139 233.724 106.2C233.468 105.859 233.084 105.304 232.572 104.536C227.708 97.1973 223.484 89.1333 219.9 80.344C215.292 68.9947 210.513 55.64 205.564 40.28L204.796 37.848L203.9 42.072C201.255 54.7867 197.927 67.2027 193.916 79.32C191.271 87 188.967 92.8027 187.004 96.728C186.321 98.1787 185.596 99.5013 184.828 100.696C181.841 105.645 178.684 108.504 175.356 109.272C174.076 109.528 172.412 109.443 170.364 109.016C167.036 108.077 164.604 106.499 163.068 104.28C162.983 104.109 162.897 103.939 162.812 103.768C161.703 101.549 162.087 98.5627 163.964 94.808C164.647 93.3573 165.415 92.2053 166.268 91.352C167.036 90.584 167.847 90.2 168.7 90.2C169.212 90.2 169.596 90.3707 169.852 90.712C171.047 91.9067 172.071 92.7173 172.924 93.144C174.631 93.9973 176.252 94.424 177.788 94.424C178.471 94.424 178.983 94.3387 179.324 94.168C180.007 93.7413 180.86 92.5467 181.884 90.584C183.591 87.256 185.425 82.4773 187.388 76.248C193.191 58.4987 197.116 40.7067 199.164 22.872C199.505 20.3973 199.676 19.1173 199.676 19.032C200.103 17.24 201.681 15.576 204.412 14.04C205.18 13.6133 205.948 13.3147 206.716 13.144L209.02 12.76C209.873 12.76 210.471 12.888 210.812 13.144C211.324 13.4853 211.58 13.6987 211.58 13.784C212.007 14.552 212.433 15.8747 212.86 17.752C217.724 34.7333 223.313 51.3733 229.628 67.672C232.359 74.6693 234.748 80.216 236.796 84.312C239.271 89.2613 240.636 91.736 240.892 91.736L241.404 89.944C242.684 84.4827 245.927 72.408 251.132 53.72C257.617 31.448 262.183 17.9653 264.828 13.272C265.681 11.736 266.62 10.4133 267.644 9.30399C272.764 4.18399 278.993 1.36799 286.332 0.855995ZM312.356 15.704H333.732C342.948 16.3013 350.585 18.5627 356.644 22.488C364.836 27.9493 368.804 35.928 368.548 46.424C368.292 53.4213 366.5 60.0347 363.172 66.264C359.417 73.432 353.871 79.832 346.532 85.464C334.5 94.7653 320.847 100.397 305.572 102.36C305.145 102.36 304.719 102.403 304.292 102.488C301.135 102.829 296.271 103 289.7 103H280.74L280.228 102.616C279.204 101.933 279.033 100.867 279.716 99.416C280.228 98.2213 281.423 96.9413 283.3 95.576C285.177 94.3813 286.799 93.656 288.164 93.4L289.316 93.016L289.572 92.12C297.935 71.128 303.097 50.0933 305.06 29.016C305.401 26.7973 305.487 25.688 305.316 25.688L300.196 26.328C295.417 27.096 291.961 28.4187 289.828 30.296C288.463 31.6613 287.439 33.4107 286.756 35.544C286.329 36.6533 285.689 37.7627 284.836 38.872C281.764 41.5173 278.521 43.0107 275.108 43.352C273.999 43.352 273.273 42.968 272.932 42.2C272.676 41.688 272.761 40.7067 273.188 39.256C274.895 34.3067 278.137 29.9973 282.916 26.328C290.767 20.184 300.58 16.6427 312.356 15.704ZM323.108 25.688C322.34 25.6027 321.273 25.56 319.908 25.56H318.884V26.2L318.372 29.912C315.897 49.624 310.692 69.464 302.756 89.432C301.817 91.5653 301.348 92.6747 301.348 92.76C301.348 92.9307 302.201 93.016 303.908 93.016C308.345 93.016 312.569 92.5893 316.58 91.736C325.796 89.8587 333.604 86.3173 340.004 81.112C342.564 79.064 344.74 76.8453 346.532 74.456C350.799 68.9093 353.401 62.6373 354.34 55.64C354.681 52.824 354.681 50.008 354.34 47.192C353.487 41.4747 350.927 36.824 346.66 33.24C341.369 28.888 333.519 26.3707 323.108 25.688ZM422.626 13.016C424.162 12.8453 425.783 12.76 427.49 12.76C430.391 12.8453 432.823 13.144 434.786 13.656C438.967 14.68 441.186 17.0693 441.442 20.824C441.527 22.36 441.271 23.9387 440.674 25.56C439.821 27.7787 438.797 29.4853 437.602 30.68C434.871 33.496 431.586 35.032 427.746 35.288C426.722 35.288 426.039 34.8613 425.698 34.008C425.527 33.6667 425.485 33.24 425.57 32.728C425.57 32.216 425.869 31.576 426.466 30.808C427.149 29.4427 427.49 28.248 427.49 27.224C427.234 25.3467 426.423 24.2373 425.058 23.896C422.157 22.9573 419.341 22.5733 416.61 22.744C413.282 23 410.381 23.896 407.906 25.432C404.407 27.736 402.359 31.064 401.762 35.416C401.506 37.0373 401.591 38.5307 402.018 39.896C403.042 43.5653 405.773 46.2533 410.21 47.96C413.197 49.24 416.525 49.88 420.194 49.88C421.047 49.88 421.73 50.1787 422.242 50.776C423.266 51.9707 422.711 53.6347 420.578 55.768C420.407 55.8533 420.237 55.9813 420.066 56.152C417.165 58.6267 414.221 59.864 411.234 59.864C407.138 59.864 403.255 61.016 399.586 63.32C394.125 66.7333 390.285 71.6827 388.066 78.168C387.895 78.7653 387.725 79.3627 387.554 79.96C387.298 80.8133 387.17 81.9227 387.17 83.288C387.17 84.568 387.255 85.5493 387.426 86.232C388.706 90.1573 391.565 92.888 396.002 94.424C399.159 95.5333 402.231 95.96 405.218 95.704C410.765 95.192 415.586 92.2053 419.682 86.744C420.962 85.0373 422.285 83.7573 423.65 82.904C426.125 81.2827 428.514 80.472 430.818 80.472C431.757 80.472 432.439 80.856 432.866 81.624C433.463 82.5627 432.909 84.0987 431.202 86.232C425.229 94.2533 417.463 100.013 407.906 103.512C407.65 103.597 407.394 103.683 407.138 103.768C400.141 105.987 393.826 106.456 388.194 105.176C383.074 104.237 379.021 101.848 376.034 98.008C372.962 94.0827 372.279 89.3467 373.986 83.8C376.375 75.352 381.495 67.9707 389.346 61.656C392.077 59.5227 394.295 57.9867 396.002 57.048C396.258 56.8773 396.429 56.7493 396.514 56.664L396.002 56.28C395.319 55.9387 394.039 55.0427 392.162 53.592C390.285 51.8853 388.919 49.5813 388.066 46.68C387.895 45.912 387.81 44.7173 387.81 43.096C387.81 41.3893 387.895 40.152 388.066 39.384C388.834 35.544 390.669 31.8747 393.57 28.376C395.447 26.072 397.282 24.28 399.074 23C406.157 17.2827 414.007 13.9547 422.626 13.016ZM447.499 15.704C448.95 15.3627 451.04 15.448 453.771 15.96C456.16 16.3867 458.763 17.624 461.579 19.672C468.832 25.1333 473.056 36.9947 474.251 55.256C474.678 61.656 474.592 69.1227 473.995 77.656C473.824 82.1787 473.526 85.6773 473.099 88.152V88.664L473.867 88.024C488.118 75.736 498.784 64.3013 505.867 53.72C509.11 48.7707 511.158 44.7173 512.011 41.56C512.438 40.024 512.438 38.4453 512.011 36.824C511.158 34.52 509.707 32.8133 507.659 31.704C506.208 31.0213 504.63 30.5947 502.923 30.424C502.24 30.424 501.728 30.3387 501.387 30.168C500.363 29.4853 499.979 28.0347 500.235 25.816C500.491 22.1467 501.771 19.16 504.075 16.856C504.587 16.4293 505.056 16.088 505.483 15.832C505.91 15.6613 506.635 15.576 507.659 15.576C510.219 15.6613 512.566 16.472 514.699 18.008C517.088 19.6293 518.795 22.0187 519.819 25.176C521.44 29.784 521.355 35.16 519.563 41.304C515.808 55.384 504.971 71.2987 487.051 89.048C478.688 97.24 470.795 104.024 463.371 109.4C462.347 110.083 461.579 110.424 461.067 110.424C460.64 110.424 460.256 110.253 459.915 109.912C458.891 108.888 458.635 106.84 459.147 103.768C460.256 97.4533 461.024 90.4133 461.451 82.648C462.304 70.9573 462.048 60.2907 460.683 50.648C459.147 39.64 455.947 32.1307 451.083 28.12C448.779 26.2427 445.835 25.176 442.251 24.92C441.568 24.92 440.928 24.7493 440.331 24.408C439.222 23.8107 439.008 22.7013 439.691 21.08C440.374 19.8853 441.27 18.8613 442.379 18.008C444.086 16.728 445.792 15.96 447.499 15.704Z" fill="white"/>
</svg>
