<svg width="531" height="96" viewBox="0 0 531 96" fill="none" xmlns="http://www.w3.org/2000/svg">
<path d="M32.625 0.3125C33.6667 0.604167 35.0208 1.10417 36.6875 1.8125C38.3958 2.52083 40.2708 3.41667 42.3125 4.5C44.3958 5.58333 46.5833 6.95833 48.875 8.625C51.1667 10.25 53.4792 12.1875 55.8125 14.4375C56.4792 15.1042 57.1042 15.7917 57.6875 16.5C58.3125 17.1667 58.8958 17.8542 59.4375 18.5625L47 24.6875C45.0833 22.2708 43.1458 20.2292 41.1875 18.5625C39.2292 16.8542 37.125 15.4375 34.875 14.3125C32.625 13.1875 30.25 12.2292 27.75 11.4375C25.25 10.6042 22.5 9.91667 19.5 9.375C15 12.5417 12.75 17.3958 12.75 23.9375C12.75 28.4792 15.2083 31.625 20.125 33.375C43.7917 41.8333 57.6875 48.1042 61.8125 52.1875C63.2708 53.6458 64.4167 55.5208 65.25 57.8125C66.0833 60.1042 66.5 62.75 66.5 65.75C66.5 68 66.0208 70.1667 65.0625 72.25C64.1458 74.3333 62.625 76.5 60.5 78.75C56.6667 82.7083 53.9375 85.0833 52.3125 85.875L35.625 95C31.2917 94.5 24.875 91.9583 16.375 87.375C14.9167 86.5833 13.1667 85.3958 11.125 83.8125C9.08333 82.2292 6.75 80.1875 4.125 77.6875C3.41667 77.0625 2.77083 76.3958 2.1875 75.6875C1.60417 74.9792 1.04167 74.2708 0.5 73.5625L12.9375 67.4375C14.3125 69.6875 18.7917 73 26.375 77.375C32.875 81.0833 41.2708 83.875 51.5625 85.75C56.1042 82.5417 58.375 77.6667 58.375 71.125C58.375 65.625 54.6458 61.2708 47.1875 58.0625C37.8958 54.1458 30.8125 51.1458 25.9375 49.0625C21.0625 46.9792 18.3333 45.8333 17.75 45.625C9.25 42.3333 5 36.7917 5 29C5 24.5417 6.875 20.3333 10.625 16.375C14.4583 12.4167 17.1667 10.0417 18.75 9.25L32.625 0.3125ZM93.625 33.5L93.5625 33.5625C92.3542 35.8125 91.0625 39.5833 89.6875 44.875C88.6875 48.6667 88.1875 52.2083 88.1875 55.5C88.1875 56.7917 88.2917 58.1458 88.5 59.5625C89.0417 63.2292 90.5833 66.9583 93.125 70.75C95.75 74.7083 99.3542 77.7292 103.938 79.8125C108.229 81.7708 114.375 83.6667 122.375 85.5L122.438 85.4375C123.438 83.1875 124.625 79.0625 126 73.0625C126.833 69.4375 127.25 66.1458 127.25 63.1875C127.25 61.6042 127.146 60.2083 126.938 59C126.312 55.3333 124.771 51.6042 122.312 47.8125C120.312 44.7292 116.708 41.7292 111.5 38.8125C107.417 36.5208 101.458 34.75 93.625 33.5ZM108.875 95.25C106.375 94.625 103.417 93.4167 100 91.625C96.625 89.8333 93.5 87.5625 90.625 84.8125C86.9583 81.2708 84.3958 77.4167 82.9375 73.25C81.1458 69 80.25 64.625 80.25 60.125C80.25 60 80.25 59.9167 80.25 59.875C80.25 55.4167 81.2708 50.8125 83.3125 46.0625C84.9375 42.2708 87 39.0417 89.5 36.375C90.6667 35.125 91.9167 34 93.25 33L106.5 24.3125C108.542 24.8542 111.521 26.125 115.438 28.125C118.354 29.625 121.458 31.875 124.75 34.875C128.458 38.4583 131.062 42.4375 132.562 46.8125C134.229 51.4792 135.083 55.8125 135.125 59.8125V60.0625C135.125 65.8125 134.208 70.375 132.375 73.75C129.542 78.9583 127.167 82.4167 125.25 84.125C124.208 85.0417 123.5 85.7917 123.125 86.375L108.875 95.25ZM150.75 95C152.333 82.5 153.125 72.125 153.125 63.875C153.125 59.75 153.104 57.5 153.062 57.125C152.979 47.4167 152.312 38.6875 151.062 30.9375L150.75 29.9375C155.792 29.3542 160.896 27.5833 166.062 24.625L166.5 24.375C165.667 26.8333 164.771 29.6667 163.812 32.875L177.5 24.375C179.875 25 182.812 26.2083 186.312 28C189.562 29.7083 192.688 31.9792 195.688 34.8125C199.354 38.3125 201.938 42.1667 203.438 46.375C205.062 50.375 205.938 54.75 206.062 59.5C206.438 71.625 207.208 80.7917 208.375 87L208.875 89.25C206.083 89.5833 203.542 90.1667 201.25 91C197.625 92.3333 194.917 93.6667 193.125 95C194.75 84.0833 195.562 73.5208 195.562 63.3125C195.521 61.9792 195.5 60.7917 195.5 59.75C195.5 54.9583 194.75 51.3333 193.25 48.875C190.75 45.2083 187.125 42.1875 182.375 39.8125C178.208 37.7292 172.042 35.8542 163.875 34.1875H163.812C163.521 37.2292 163.375 43.9792 163.375 54.4375V56.625C163.375 68.3333 164.25 78.4583 166 87L166.5 89.25C163.667 89.5833 161.125 90.1667 158.875 91C155.25 92.3333 152.542 93.6667 150.75 95ZM310 86.1875C310.417 83.3542 310.729 80.6875 310.938 78.1875C311.146 75.6458 311.25 73.25 311.25 71V69.25C311.208 66.0833 311.021 63.0625 310.688 60.1875C310.354 57.2708 309.771 54.4375 308.938 51.6875L308.5 50.25C311 49.9583 313.521 49.375 316.062 48.5C318.604 47.625 321.333 46.3542 324.25 44.6875C321.583 50.9375 320.25 58.5208 320.25 67.4375V69C320.25 76.7917 321.354 83.0208 323.562 87.6875L324.188 89.25C322.396 89.4583 320.688 89.7917 319.062 90.25C317.479 90.6667 316 91.1667 314.625 91.75C313.292 92.2917 312.083 92.8542 311 93.4375C309.958 93.9792 309.104 94.5 308.438 95C308.729 93.5417 309 92.1042 309.25 90.6875C309.5 89.2292 309.729 87.8333 309.938 86.5L296.438 95C294.854 94.5833 293.083 93.9583 291.125 93.125C289.167 92.2917 287.125 91.25 285 90C282.917 88.75 280.792 87.3125 278.625 85.6875C276.5 84.0208 274.479 82.1667 272.562 80.125C270.646 78.0833 268.896 75.8542 267.312 73.4375C265.729 71.0208 264.458 68.4167 263.5 65.625C261.25 59.2083 260.125 53.2708 260.125 47.8125C260.125 44.2292 260.604 40.5625 261.562 36.8125C262.562 33.0625 263.917 29.4583 265.625 26C267.375 22.5417 269.438 19.375 271.812 16.5C274.188 13.5833 276.771 11.1667 279.562 9.25L293.438 0.3125C294.562 0.645833 295.958 1.14583 297.625 1.8125C299.292 2.47917 301.146 3.375 303.188 4.5C305.229 5.58333 307.396 6.9375 309.688 8.5625C311.979 10.1875 314.292 12.1458 316.625 14.4375C317.917 15.7708 319.104 17.1458 320.188 18.5625L307.75 24.6875C305.875 22.3125 303.958 20.2917 302 18.625C300.042 16.9167 297.958 15.4792 295.75 14.3125C293.542 13.1458 291.167 12.1667 288.625 11.375C286.125 10.5833 283.354 9.91667 280.312 9.375L280.25 9.4375C276.667 11.5208 273.938 17.0417 272.062 26C270.812 32 270.188 37.3958 270.188 42.1875C270.188 45.1458 270.5 48.2708 271.125 51.5625C271.75 54.8125 272.812 58.0417 274.312 61.25C275.854 64.4583 277.896 67.5625 280.438 70.5625C283.021 73.5625 286.271 76.2917 290.188 78.75C296.062 82.5 302.667 84.9792 310 86.1875ZM353.25 33.5L353.188 33.5625C351.979 35.8125 350.688 39.5833 349.312 44.875C348.312 48.6667 347.812 52.2083 347.812 55.5C347.812 56.7917 347.917 58.1458 348.125 59.5625C348.667 63.2292 350.208 66.9583 352.75 70.75C355.375 74.7083 358.979 77.7292 363.562 79.8125C367.854 81.7708 374 83.6667 382 85.5L382.062 85.4375C383.062 83.1875 384.25 79.0625 385.625 73.0625C386.458 69.4375 386.875 66.1458 386.875 63.1875C386.875 61.6042 386.771 60.2083 386.562 59C385.938 55.3333 384.396 51.6042 381.938 47.8125C379.938 44.7292 376.333 41.7292 371.125 38.8125C367.042 36.5208 361.083 34.75 353.25 33.5ZM368.5 95.25C366 94.625 363.042 93.4167 359.625 91.625C356.25 89.8333 353.125 87.5625 350.25 84.8125C346.583 81.2708 344.021 77.4167 342.562 73.25C340.771 69 339.875 64.625 339.875 60.125C339.875 60 339.875 59.9167 339.875 59.875C339.875 55.4167 340.896 50.8125 342.938 46.0625C344.562 42.2708 346.625 39.0417 349.125 36.375C350.292 35.125 351.542 34 352.875 33L366.125 24.3125C368.167 24.8542 371.146 26.125 375.062 28.125C377.979 29.625 381.083 31.875 384.375 34.875C388.083 38.4583 390.688 42.4375 392.188 46.8125C393.854 51.4792 394.708 55.8125 394.75 59.8125V60.0625C394.75 65.8125 393.833 70.375 392 73.75C389.167 78.9583 386.792 82.4167 384.875 84.125C383.833 85.0417 383.125 85.7917 382.75 86.375L368.5 95.25ZM410.375 95C411.292 88.7083 411.958 82.0833 412.375 75.125C412.833 68.1667 413.062 60.7917 413.062 53C413.021 42 412.792 32.7708 412.375 25.3125C412 17.8542 411.458 12.1667 410.75 8.25L410.375 6.125C412.875 5.83333 415.396 5.25 417.938 4.375C420.479 3.45833 423.208 2.1875 426.125 0.5625C424.25 12.3958 423.312 26.7292 423.312 43.5625V45.75C423.312 47.6667 423.312 49.5208 423.312 51.3125C423.312 53.0625 423.333 54.7708 423.375 56.4375C423.917 55.9375 424.833 55.0625 426.125 53.8125C427.458 52.5208 428.979 51 430.688 49.25C432.438 47.4583 434.312 45.5208 436.312 43.4375C438.312 41.3125 440.271 39.1875 442.188 37.0625C444.146 34.8958 445.979 32.7917 447.688 30.75C449.396 28.7083 450.833 26.875 452 25.25L452.625 24.375C454.083 25.75 455.521 26.8958 456.938 27.8125C458.396 28.7292 459.604 29.3542 460.562 29.6875C456.479 32.6458 450.917 37.4583 443.875 44.125L437.625 50.3125C443.167 63.5625 452.729 76.6875 466.312 89.6875C463.771 89.9792 461.229 90.5833 458.688 91.5C456.188 92.375 453.479 93.625 450.562 95.25C444.479 80.0417 437.688 67.7917 430.188 58.5C427.104 62.25 424.958 65.5 423.75 68.25C423.958 72.4167 424.208 76.0625 424.5 79.1875C424.792 82.2708 425.167 84.875 425.625 87L426.125 89.25C424.333 89.4583 422.625 89.7917 421 90.25C419.417 90.6667 417.938 91.1458 416.562 91.6875C415.229 92.2292 414.021 92.7917 412.938 93.375C411.896 93.9583 411.042 94.5 410.375 95ZM472.625 30.125C474.375 29.9583 476.042 29.6667 477.625 29.25C479.25 28.7917 480.729 28.2917 482.062 27.75C483.438 27.1667 484.646 26.5833 485.688 26C486.771 25.4167 487.667 24.875 488.375 24.375C486.75 35.3333 485.938 45.8958 485.938 56.0625C486.021 57.8542 486.083 59.4583 486.125 60.875C486.208 62.2917 486.312 63.5833 486.438 64.75C486.562 65.875 486.771 66.9167 487.062 67.875C487.354 68.7917 487.75 69.6667 488.25 70.5C489.458 72.2917 490.833 73.8958 492.375 75.3125C493.958 76.7292 495.896 78.0208 498.188 79.1875C500.479 80.3125 503.188 81.375 506.312 82.375C509.479 83.3333 513.271 84.2708 517.688 85.1875C517.854 83.6458 517.958 81.2083 518 77.875C518.083 74.5 518.125 70.1875 518.125 64.9375V62.75C518.042 56.9167 517.812 51.4792 517.438 46.4375C517.104 41.3542 516.458 36.6667 515.5 32.375L515 30.125C516.75 29.9583 518.417 29.6667 520 29.25C521.625 28.7917 523.104 28.2917 524.438 27.75C525.812 27.1667 527.021 26.5833 528.062 26C529.146 25.4167 530.042 24.875 530.75 24.375C529.958 30.6667 529.354 36.3958 528.938 41.5625C528.562 46.6875 528.375 51.3333 528.375 55.5C528.375 58.9167 528.396 62.0833 528.438 65C528.521 67.9167 528.625 70.7083 528.75 73.375C528.917 76 529.125 78.5417 529.375 81C529.667 83.4583 530.021 85.9375 530.438 88.4375L530.75 89.4375C528.208 89.7292 525.667 90.3333 523.125 91.25C520.625 92.125 518.062 93.2917 515.438 94.75L515 95C515.417 93.7917 515.854 92.4792 516.312 91.0625C516.771 89.6042 517.229 88.0833 517.688 86.5L504 95C502.25 94.5417 500.125 93.7292 497.625 92.5625C495.125 91.3542 492.604 89.8333 490.062 88C487.521 86.125 485.167 83.9375 483 81.4375C480.833 78.9375 479.188 76.125 478.062 73C476.438 69 475.562 64.625 475.438 59.875C475.229 53.7917 474.938 48.4792 474.562 43.9375C474.188 39.3542 473.708 35.5 473.125 32.375L472.625 30.125Z" fill="white"/>
</svg>
