<svg width="573" height="95" viewBox="0 0 573 95" fill="none" xmlns="http://www.w3.org/2000/svg">
<path d="M0 6.1875C1.75 6.02083 3.4375 5.70833 5.0625 5.25C6.72917 4.79167 8.25 4.29167 9.625 3.75C11.0417 3.20833 12.2708 2.66667 13.3125 2.125C14.3542 1.54167 15.1667 1.02083 15.75 0.5625C17.0417 5.97917 21.6042 21 29.4375 45.625C35.1458 63.625 39.0833 73.8958 41.25 76.4375C43.2083 73.5208 46.8333 65.125 52.125 51.25L50.75 47.5C43 26.7917 36.5 13.0208 31.25 6.1875C32.8333 6.02083 34.4375 5.72917 36.0625 5.3125C37.6875 4.85417 39.2083 4.35417 40.625 3.8125C42.0417 3.27083 43.3125 2.70833 44.4375 2.125C45.5625 1.54167 46.4167 1.02083 47 0.5625C48.2917 6.1875 51.8542 18.0625 57.6875 36.1875C60.7708 27.8125 63.0833 21.1875 64.625 16.3125C66.2083 11.4375 67 8.25 67 6.75V5.9375C72.9583 4.77083 77.2083 2.97917 79.75 0.5625C73.75 12.1458 67.3125 26.8958 60.4375 44.8125C66.2708 63.3542 70.2917 73.8958 72.5 76.4375C74.8333 73.0625 79.2917 62.4375 85.875 44.5625C89.9583 33.3958 93.0417 24.6875 95.125 18.4375C97.2083 12.1458 98.25 8.25 98.25 6.75V5.9375C104.208 4.64583 108.458 2.85417 111 0.5625C108.333 5.77083 105.375 12.0417 102.125 19.375C98.9167 26.7083 95.4167 35.2292 91.625 44.9375C85.0417 61.6042 80.9792 75.6042 79.4375 86.9375L79.1875 89.4375C76.6458 89.7292 74.1042 90.3333 71.5625 91.25C69.0625 92.125 66.3542 93.375 63.4375 95C62.3542 85.1667 59.5417 73.375 55 59.625C53.25 64.8333 51.8125 69.7083 50.6875 74.25C49.5625 78.75 48.7292 82.9792 48.1875 86.9375L47.9375 89.4375C45.3958 89.7292 42.8542 90.3333 40.3125 91.25C37.8125 92.125 35.1042 93.375 32.1875 95C30.8125 82.4583 26.5833 66.625 19.5 47.5C11.75 26.7917 5.25 13.0208 0 6.1875ZM143.5 92.375C136.375 92.375 128.667 93.25 120.375 95C121.292 88.875 121.958 82.3542 122.375 75.4375C122.833 68.4792 123.062 61.0417 123.062 53.125C123.062 41.875 122.833 32.5 122.375 25C121.958 17.5 121.417 11.9167 120.75 8.25L120.375 6.125C122.917 5.83333 125.438 5.25 127.938 4.375C130.479 3.45833 133.208 2.1875 136.125 0.5625C138.75 1.4375 141.312 2.1875 143.812 2.8125C146.312 3.4375 149.167 3.75 152.375 3.75C157.833 3.75 163.812 2.6875 170.312 0.5625C167.271 6.0625 165.604 11.3125 165.312 16.3125C157.562 15.8958 151.083 13.7917 145.875 10C143.375 8.08333 141.292 6.45833 139.625 5.125C138 3.75 136.771 2.64583 135.938 1.8125C134.188 13.2708 133.312 27.0417 133.312 43.125V44.25C144.812 43.6667 154.646 41.3125 162.812 37.1875C161.979 38.7708 161.146 40.9375 160.312 43.6875C159.521 46.3958 158.958 49.4792 158.625 52.9375L156.938 52.4375C152.188 51.0208 145.167 50.3125 135.875 50.3125H133.375C133.542 67.3958 134.229 79.2708 135.438 85.9375C136.688 86.2708 137.667 86.4375 138.375 86.4375C152.708 86.4375 164.583 84.0417 174 79.25C173.25 80.7083 172.458 82.6875 171.625 85.1875C170.833 87.6458 170.229 90.9167 169.812 95L168.188 94.5C163.646 93.0833 155.417 92.375 143.5 92.375ZM209.625 92.375C202.5 92.375 194.792 93.25 186.5 95C187.417 88.75 188.083 82.1458 188.5 75.1875C188.958 68.2292 189.188 60.8333 189.188 53C189.146 42 188.917 32.7708 188.5 25.3125C188.125 17.8542 187.583 12.1667 186.875 8.25L186.5 6.125C189.042 5.83333 191.562 5.25 194.062 4.375C196.604 3.45833 199.333 2.1875 202.25 0.5625C200.375 12.3125 199.438 26.6458 199.438 43.5625V45.75C199.438 64.8333 200.146 78.2292 201.562 85.9375C202.688 86.2708 203.667 86.4375 204.5 86.4375C218.833 86.4375 230.708 84.0417 240.125 79.25C239.333 80.7083 238.521 82.7708 237.688 85.4375C236.854 88.0625 236.271 91.25 235.938 95L234.312 94.5C229.771 93.0833 221.542 92.375 209.625 92.375ZM311.188 64.8125C310.979 65.5208 310.792 66.0208 310.625 66.3125C308.125 71.8125 305.438 76 302.562 78.875C300.396 81.0833 298.667 82.7917 297.375 84C296.083 85.2083 295.208 85.9583 294.75 86.25L280.812 95C278.438 94.375 275.646 93.2708 272.438 91.6875C269.271 90.0625 266.083 88 262.875 85.5C259.708 83 256.771 80.0833 254.062 76.75C251.354 73.4167 249.292 69.7083 247.875 65.625C246.792 62.4583 245.938 59.4375 245.312 56.5625C244.729 53.6458 244.458 50.7292 244.5 47.8125C244.5 44.2292 244.979 40.5625 245.938 36.8125C246.938 33.0625 248.292 29.4583 250 26C251.75 22.5417 253.812 19.375 256.188 16.5C258.562 13.5833 261.146 11.1667 263.938 9.25L277.812 0.3125C278.979 0.645833 280.396 1.14583 282.062 1.8125C283.729 2.47917 285.583 3.375 287.625 4.5C289.667 5.625 291.812 7 294.062 8.625C296.354 10.25 298.667 12.1875 301 14.4375C302.292 15.7708 303.479 17.1458 304.562 18.5625L292.125 24.6875C290.25 22.3125 288.333 20.2917 286.375 18.625C284.417 16.9167 282.333 15.4792 280.125 14.3125C277.917 13.1042 275.542 12.125 273 11.375C270.5 10.5833 267.729 9.91667 264.688 9.375L264.625 9.4375C261.042 11.5208 258.312 17.0417 256.438 26C255.188 32 254.562 37.3958 254.562 42.1875C254.562 44.8125 254.833 47.6042 255.375 50.5625C255.917 53.5208 256.792 56.4792 258 59.4375C259.25 62.3542 260.875 65.2292 262.875 68.0625C264.875 70.8542 267.333 73.4375 270.25 75.8125C273.167 78.1875 276.583 80.2708 280.5 82.0625C284.417 83.8542 288.917 85.2083 294 86.125C297.875 82.7083 299.812 77.3333 299.812 70C299.812 66.625 299.396 63.4583 298.562 60.5L311.188 64.8125ZM346.438 9.375C342.896 11.4583 340.146 17 338.188 26C336.938 31.7917 336.312 37.125 336.312 42C336.312 44.1667 336.438 46.2292 336.688 48.1875C337.396 53.6458 339.354 59.2917 342.562 65.125C345.521 70.375 350.104 74.9167 356.312 78.75C362.271 82.4167 368.729 84.875 375.688 86.125L375.812 86.0625C379.688 83.8958 382.521 78.0625 384.312 68.5625C385.354 63.1042 385.875 58.125 385.875 53.625C385.875 51.4583 385.75 49.3542 385.5 47.3125C384.875 42.0625 382.917 36.4167 379.625 30.375C376.667 25 372.208 20.5625 366.25 17.0625C360.25 13.5625 353.646 11 346.438 9.375ZM362.562 95C359.604 94.2083 355.854 92.5833 351.312 90.125C347.062 87.7917 343.104 84.7708 339.438 81.0625C334.771 76.3542 331.5 71.2083 329.625 65.625C327.375 59.3333 326.25 53.5 326.25 48.125C326.25 48 326.25 47.8958 326.25 47.8125C326.25 41.8958 327.542 35.75 330.125 29.375C332 24.6667 334.625 20.3542 338 16.4375C340.667 13.3125 343.229 10.9167 345.688 9.25L359.562 0.3125C362.188 1.02083 365.958 2.70833 370.875 5.375C374.583 7.375 378.542 10.3958 382.75 14.4375C387.458 19.1875 390.75 24.5 392.625 30.375C394.75 36.5833 395.833 42.3542 395.875 47.6875C395.875 47.6875 395.875 47.8125 395.875 48.0625C395.875 54.7708 394.708 60.8542 392.375 66.3125C390.125 71.5625 387.438 75.75 384.312 78.875C379.979 83.2083 377.375 85.6667 376.5 86.25L362.562 95ZM406.5 95C408.583 88.0417 411.396 72.625 414.938 48.75C416.688 36.9583 418.104 25.9583 419.188 15.75C417.062 11.75 415.083 8.5625 413.25 6.1875C415.75 5.89583 418.292 5.3125 420.875 4.4375C424.667 3.14583 427.375 1.85417 429 0.5625V0.6875L429.125 0.5625L429.062 0.6875C430.312 5.77083 434.854 20.75 442.688 45.625C448.354 63.5417 452.292 73.8125 454.5 76.4375C456.792 73.1458 461.25 62.5208 467.875 44.5625C474.125 27.6042 478 16.25 479.5 10.5C479.292 9.91667 478.896 9.08333 478.312 8L477.25 6C482.292 5.41667 487.396 3.64583 492.562 0.6875L493 0.4375V0.5V0.5625C493 13.9375 494.188 28.75 496.562 45C499.438 64.5833 502.479 78.5833 505.688 87C506.229 88.4167 506.604 89.1667 506.812 89.25C503.979 89.5833 501.438 90.1667 499.188 91C495.562 92.3333 492.854 93.6667 491.062 95C491.146 94.2083 491.188 93.2292 491.188 92.0625C491.104 84.1875 489.646 68.8333 486.812 46C485.646 36.5417 484.354 28.6042 482.938 22.1875L473.625 44.9375C467.083 61.5208 463.021 75.5208 461.438 86.9375C461.271 88.1458 461.167 88.7708 461.125 88.8125L461.188 89.4375C456.146 90.0208 451.042 91.7917 445.875 94.75L445.438 95C444.104 82.4167 439.875 66.5833 432.75 47.5C429.375 38.4583 426.25 30.7708 423.375 24.4375C422.208 31.3958 420.979 39.5833 419.688 49C417.688 63.3333 416.438 76.3333 415.938 88L415.875 89.4375C412.708 90.0625 409.667 91.8333 406.75 94.75L406.5 95ZM542.5 92.375C535.375 92.375 527.667 93.25 519.375 95C520.292 88.875 520.958 82.3542 521.375 75.4375C521.833 68.4792 522.062 61.0417 522.062 53.125C522.062 41.875 521.833 32.5 521.375 25C520.958 17.5 520.417 11.9167 519.75 8.25L519.375 6.125C521.917 5.83333 524.438 5.25 526.938 4.375C529.479 3.45833 532.208 2.1875 535.125 0.5625C537.75 1.4375 540.312 2.1875 542.812 2.8125C545.312 3.4375 548.167 3.75 551.375 3.75C556.833 3.75 562.812 2.6875 569.312 0.5625C566.271 6.0625 564.604 11.3125 564.312 16.3125C556.562 15.8958 550.083 13.7917 544.875 10C542.375 8.08333 540.292 6.45833 538.625 5.125C537 3.75 535.771 2.64583 534.938 1.8125C533.188 13.2708 532.312 27.0417 532.312 43.125V44.25C543.812 43.6667 553.646 41.3125 561.812 37.1875C560.979 38.7708 560.146 40.9375 559.312 43.6875C558.521 46.3958 557.958 49.4792 557.625 52.9375L555.938 52.4375C551.188 51.0208 544.167 50.3125 534.875 50.3125H532.375C532.542 67.3958 533.229 79.2708 534.438 85.9375C535.688 86.2708 536.667 86.4375 537.375 86.4375C551.708 86.4375 563.583 84.0417 573 79.25C572.25 80.7083 571.458 82.6875 570.625 85.1875C569.833 87.6458 569.229 90.9167 568.812 95L567.188 94.5C562.646 93.0833 554.417 92.375 542.5 92.375Z" fill="white"/>
</svg>
