<svg width="90" height="15" viewBox="0 0 90 15" fill="none" xmlns="http://www.w3.org/2000/svg">
<path d="M0 1.12305C0.273438 1.09701 0.537109 1.04818 0.791016 0.976562C1.05143 0.904948 1.28906 0.826823 1.50391 0.742188C1.72526 0.657552 1.91732 0.572917 2.08008 0.488281C2.24284 0.397135 2.36979 0.315755 2.46094 0.244141C2.66276 1.09049 3.37565 3.4375 4.59961 7.28516C5.49154 10.0977 6.10677 11.7025 6.44531 12.0996C6.7513 11.6439 7.31771 10.332 8.14453 8.16406L7.92969 7.57812C6.71875 4.34245 5.70312 2.19076 4.88281 1.12305C5.13021 1.09701 5.38086 1.05143 5.63477 0.986328C5.88867 0.914714 6.1263 0.836589 6.34766 0.751953C6.56901 0.667318 6.76758 0.579427 6.94336 0.488281C7.11914 0.397135 7.2526 0.315755 7.34375 0.244141C7.54557 1.12305 8.10221 2.97852 9.01367 5.81055C9.49544 4.50195 9.85677 3.4668 10.0977 2.70508C10.3451 1.94336 10.4688 1.44531 10.4688 1.21094V1.08398C11.3997 0.901693 12.0638 0.621745 12.4609 0.244141C11.5234 2.05404 10.5176 4.35872 9.44336 7.1582C10.3548 10.0553 10.9831 11.7025 11.3281 12.0996C11.6927 11.5723 12.3893 9.91211 13.418 7.11914C14.056 5.37435 14.5378 4.01367 14.8633 3.03711C15.1888 2.05404 15.3516 1.44531 15.3516 1.21094V1.08398C16.2826 0.882161 16.9466 0.602214 17.3438 0.244141C16.9271 1.05794 16.4648 2.03776 15.957 3.18359C15.4557 4.32943 14.9089 5.66081 14.3164 7.17773C13.2878 9.7819 12.653 11.9694 12.4121 13.7402L12.373 14.1309C11.9759 14.1764 11.5788 14.2708 11.1816 14.4141C10.791 14.5508 10.3678 14.7461 9.91211 15C9.74284 13.4635 9.30339 11.6211 8.59375 9.47266C8.32031 10.2865 8.0957 11.0482 7.91992 11.7578C7.74414 12.4609 7.61393 13.1217 7.5293 13.7402L7.49023 14.1309C7.0931 14.1764 6.69596 14.2708 6.29883 14.4141C5.9082 14.5508 5.48503 14.7461 5.0293 15C4.81445 13.0404 4.15365 10.5664 3.04688 7.57812C1.83594 4.34245 0.820312 2.19076 0 1.12305ZM22.4219 14.5898C21.3086 14.5898 20.1042 14.7266 18.8086 15C18.9518 14.043 19.056 13.0241 19.1211 11.9434C19.1927 10.8561 19.2285 9.69401 19.2285 8.45703C19.2285 6.69922 19.1927 5.23438 19.1211 4.0625C19.056 2.89062 18.9714 2.01823 18.8672 1.44531L18.8086 1.11328C19.2057 1.06771 19.5996 0.976562 19.9902 0.839844C20.3874 0.696615 20.8138 0.498047 21.2695 0.244141C21.6797 0.380859 22.0801 0.498047 22.4707 0.595703C22.8613 0.693359 23.3073 0.742188 23.8086 0.742188C24.6615 0.742188 25.5957 0.576172 26.6113 0.244141C26.1361 1.10352 25.8757 1.92383 25.8301 2.70508C24.6191 2.63997 23.6068 2.3112 22.793 1.71875C22.4023 1.41927 22.0768 1.16536 21.8164 0.957031C21.5625 0.742188 21.3704 0.569661 21.2402 0.439453C20.9668 2.22982 20.8301 4.38151 20.8301 6.89453V7.07031C22.627 6.97917 24.1634 6.61133 25.4395 5.9668C25.3092 6.21419 25.179 6.55273 25.0488 6.98242C24.9251 7.4056 24.8372 7.88737 24.7852 8.42773L24.5215 8.34961C23.7793 8.12826 22.6823 8.01758 21.2305 8.01758H20.8398C20.8659 10.6868 20.9733 12.5423 21.1621 13.584C21.3574 13.6361 21.5104 13.6621 21.6211 13.6621C23.8607 13.6621 25.7161 13.2878 27.1875 12.5391C27.0703 12.7669 26.9466 13.0762 26.8164 13.4668C26.6927 13.8509 26.5983 14.362 26.5332 15L26.2793 14.9219C25.5697 14.7005 24.2839 14.5898 22.4219 14.5898ZM32.7539 14.5898C31.6406 14.5898 30.4362 14.7266 29.1406 15C29.2839 14.0234 29.388 12.9915 29.4531 11.9043C29.5247 10.8171 29.5605 9.66146 29.5605 8.4375C29.554 6.71875 29.5182 5.27669 29.4531 4.11133C29.3945 2.94596 29.3099 2.05729 29.1992 1.44531L29.1406 1.11328C29.5378 1.06771 29.9316 0.976562 30.3223 0.839844C30.7194 0.696615 31.1458 0.498047 31.6016 0.244141C31.3086 2.08008 31.1621 4.31966 31.1621 6.96289V7.30469C31.1621 10.2865 31.2728 12.3796 31.4941 13.584C31.6699 13.6361 31.8229 13.6621 31.9531 13.6621C34.1927 13.6621 36.0482 13.2878 37.5195 12.5391C37.3958 12.7669 37.2689 13.0892 37.1387 13.5059C37.0085 13.916 36.9173 14.4141 36.8652 15L36.6113 14.9219C35.9017 14.7005 34.6159 14.5898 32.7539 14.5898ZM48.623 10.2832C48.5905 10.3939 48.5612 10.472 48.5352 10.5176C48.1445 11.377 47.7246 12.0312 47.2754 12.4805C46.9368 12.8255 46.6667 13.0924 46.4648 13.2812C46.263 13.4701 46.1263 13.5872 46.0547 13.6328L43.877 15C43.5059 14.9023 43.0697 14.7298 42.5684 14.4824C42.0736 14.2285 41.5755 13.9062 41.0742 13.5156C40.5794 13.125 40.1204 12.6693 39.6973 12.1484C39.2741 11.6276 38.9518 11.0482 38.7305 10.4102C38.5612 9.91536 38.4277 9.44336 38.3301 8.99414C38.2389 8.53841 38.1966 8.08268 38.2031 7.62695C38.2031 7.06706 38.278 6.49414 38.4277 5.9082C38.584 5.32227 38.7956 4.75911 39.0625 4.21875C39.3359 3.67839 39.6582 3.18359 40.0293 2.73438C40.4004 2.27865 40.804 1.90104 41.2402 1.60156L43.4082 0.205078C43.5905 0.257161 43.8118 0.335286 44.0723 0.439453C44.3327 0.54362 44.6224 0.683594 44.9414 0.859375C45.2604 1.03516 45.5957 1.25 45.9473 1.50391C46.3053 1.75781 46.6667 2.06055 47.0312 2.41211C47.2331 2.62044 47.4186 2.83529 47.5879 3.05664L45.6445 4.01367C45.3516 3.64258 45.0521 3.32682 44.7461 3.06641C44.4401 2.79948 44.1146 2.57487 43.7695 2.39258C43.4245 2.20378 43.0534 2.05078 42.6562 1.93359C42.2656 1.8099 41.8327 1.70573 41.3574 1.62109L41.3477 1.63086C40.7878 1.95638 40.3613 2.81901 40.0684 4.21875C39.873 5.15625 39.7754 5.99935 39.7754 6.74805C39.7754 7.1582 39.8177 7.5944 39.9023 8.05664C39.987 8.51888 40.1237 8.98112 40.3125 9.44336C40.5078 9.89909 40.7617 10.3483 41.0742 10.791C41.3867 11.2272 41.7708 11.6309 42.2266 12.002C42.6823 12.373 43.2161 12.6986 43.8281 12.9785C44.4401 13.2585 45.1432 13.4701 45.9375 13.6133C46.543 13.0794 46.8457 12.2396 46.8457 11.0938C46.8457 10.5664 46.7806 10.0716 46.6504 9.60938L48.623 10.2832ZM54.1309 1.62109C53.5775 1.94661 53.1478 2.8125 52.8418 4.21875C52.6465 5.1237 52.5488 5.95703 52.5488 6.71875C52.5488 7.05729 52.5684 7.37956 52.6074 7.68555C52.7181 8.53841 53.0241 9.42057 53.5254 10.332C53.9876 11.1523 54.7038 11.862 55.6738 12.4609C56.6048 13.0339 57.6139 13.418 58.7012 13.6133L58.7207 13.6035C59.3262 13.265 59.7689 12.3535 60.0488 10.8691C60.2116 10.0163 60.293 9.23828 60.293 8.53516C60.293 8.19661 60.2734 7.86784 60.2344 7.54883C60.1367 6.72852 59.8307 5.84635 59.3164 4.90234C58.8542 4.0625 58.1576 3.36914 57.2266 2.82227C56.2891 2.27539 55.2572 1.875 54.1309 1.62109ZM56.6504 15C56.1882 14.8763 55.6022 14.6224 54.8926 14.2383C54.2285 13.8737 53.61 13.4017 53.0371 12.8223C52.3079 12.0866 51.7969 11.2826 51.5039 10.4102C51.1523 9.42708 50.9766 8.51562 50.9766 7.67578C50.9766 7.65625 50.9766 7.63997 50.9766 7.62695C50.9766 6.70247 51.1784 5.74219 51.582 4.74609C51.875 4.01042 52.2852 3.33659 52.8125 2.72461C53.2292 2.23633 53.6296 1.86198 54.0137 1.60156L56.1816 0.205078C56.5918 0.315755 57.181 0.579427 57.9492 0.996094C58.5286 1.30859 59.1471 1.7806 59.8047 2.41211C60.5404 3.1543 61.0547 3.98438 61.3477 4.90234C61.6797 5.8724 61.849 6.77409 61.8555 7.60742C61.8555 7.60742 61.8555 7.62695 61.8555 7.66602C61.8555 8.71419 61.6732 9.66471 61.3086 10.5176C60.957 11.3379 60.5371 11.9922 60.0488 12.4805C59.3717 13.1576 58.9648 13.5417 58.8281 13.6328L56.6504 15ZM63.5156 15C63.8411 13.9128 64.2806 11.5039 64.834 7.77344C65.1074 5.93099 65.3288 4.21224 65.498 2.61719C65.166 1.99219 64.8568 1.49414 64.5703 1.12305C64.9609 1.07747 65.3581 0.986328 65.7617 0.849609C66.3542 0.647786 66.7773 0.445964 67.0312 0.244141V0.263672L67.0508 0.244141L67.041 0.263672C67.2363 1.05794 67.946 3.39844 69.1699 7.28516C70.0553 10.0846 70.6706 11.6895 71.0156 12.0996C71.3737 11.5853 72.0703 9.92513 73.1055 7.11914C74.082 4.4694 74.6875 2.69531 74.9219 1.79688C74.8893 1.70573 74.8275 1.57552 74.7363 1.40625L74.5703 1.09375C75.3581 1.0026 76.1556 0.725911 76.9629 0.263672L77.0312 0.224609V0.234375V0.244141C77.0312 2.33398 77.2168 4.64844 77.5879 7.1875C78.0371 10.2474 78.5124 12.4349 79.0137 13.75C79.0983 13.9714 79.1569 14.0885 79.1895 14.1016C78.7467 14.1536 78.3496 14.2448 77.998 14.375C77.4316 14.5833 77.0085 14.7917 76.7285 15C76.7415 14.8763 76.748 14.7233 76.748 14.541C76.735 13.3105 76.5072 10.9115 76.0645 7.34375C75.8822 5.86589 75.6803 4.62565 75.459 3.62305L74.0039 7.17773C72.9818 9.76888 72.347 11.9564 72.0996 13.7402C72.0736 13.929 72.0573 14.0267 72.0508 14.0332L72.0605 14.1309C71.2728 14.222 70.4753 14.4987 69.668 14.9609L69.5996 15C69.3913 13.0339 68.7305 10.5599 67.6172 7.57812C67.0898 6.16536 66.6016 4.96419 66.1523 3.97461C65.9701 5.06185 65.778 6.34115 65.5762 7.8125C65.2637 10.0521 65.0684 12.0833 64.9902 13.9062L64.9805 14.1309C64.4857 14.2285 64.0104 14.5052 63.5547 14.9609L63.5156 15ZM84.7656 14.5898C83.6523 14.5898 82.4479 14.7266 81.1523 15C81.2956 14.043 81.3997 13.0241 81.4648 11.9434C81.5365 10.8561 81.5723 9.69401 81.5723 8.45703C81.5723 6.69922 81.5365 5.23438 81.4648 4.0625C81.3997 2.89062 81.3151 2.01823 81.2109 1.44531L81.1523 1.11328C81.5495 1.06771 81.9434 0.976562 82.334 0.839844C82.7311 0.696615 83.1576 0.498047 83.6133 0.244141C84.0234 0.380859 84.4238 0.498047 84.8145 0.595703C85.2051 0.693359 85.651 0.742188 86.1523 0.742188C87.0052 0.742188 87.9395 0.576172 88.9551 0.244141C88.4798 1.10352 88.2194 1.92383 88.1738 2.70508C86.9629 2.63997 85.9505 2.3112 85.1367 1.71875C84.7461 1.41927 84.4206 1.16536 84.1602 0.957031C83.9062 0.742188 83.7142 0.569661 83.584 0.439453C83.3105 2.22982 83.1738 4.38151 83.1738 6.89453V7.07031C84.9707 6.97917 86.5072 6.61133 87.7832 5.9668C87.653 6.21419 87.5228 6.55273 87.3926 6.98242C87.2689 7.4056 87.181 7.88737 87.1289 8.42773L86.8652 8.34961C86.123 8.12826 85.026 8.01758 83.5742 8.01758H83.1836C83.2096 10.6868 83.3171 12.5423 83.5059 13.584C83.7012 13.6361 83.8542 13.6621 83.9648 13.6621C86.2044 13.6621 88.0599 13.2878 89.5312 12.5391C89.4141 12.7669 89.2904 13.0762 89.1602 13.4668C89.0365 13.8509 88.9421 14.362 88.877 15L88.623 14.9219C87.9134 14.7005 86.6276 14.5898 84.7656 14.5898Z" fill="#1E1E1E"/>
</svg>
